<svg width="380" height="293" viewBox="0 0 380 293" fill="none" xmlns="http://www.w3.org/2000/svg">
<line y1="-7.5" x2="233.916" y2="-7.5" transform="matrix(-0.56039 0.828229 -0.887027 -0.461718 229 13)" stroke="white" stroke-width="15"/>
<line y1="-7.5" x2="175.435" y2="-7.5" transform="matrix(-0.511809 0.859099 -0.909071 -0.416642 131 55.978)" stroke="white" stroke-width="15"/>
<line x1="335" y1="208.5" x2="110" y2="208.5" stroke="white" stroke-width="15"/>
<line y1="-7.5" x2="78.6712" y2="-7.5" transform="matrix(0.195039 0.980796 -0.9885 0.151224 131 55.978)" stroke="white" stroke-width="15"/>
<line x1="110" y1="208.5" x2="43" y2="208.5" stroke="white" stroke-width="15"/>
<line y1="-7.5" x2="225.434" y2="-7.5" transform="matrix(0.443953 0.89605 -0.934424 0.356164 229 13)" stroke="white" stroke-width="15"/>
<g filter="url(#filter0_d)">
<path d="M270.954 95.5021L272.592 94.1894C226.176 76.2822 205.281 59.7187 213.726 47.4753L211.963 47.6633C203.005 60.6092 223.383 77.1422 270.954 95.5021Z" fill="white"/>
<path d="M273.848 98.3579L271.912 99.9091L269.431 98.9513C245.53 89.7267 227.988 80.7942 217.503 72.2903C212.258 68.0366 208.458 63.6353 206.724 59.0858C204.918 54.3485 205.47 49.7347 208.346 45.5786L209.351 44.1263L211.276 43.921L213.04 43.7329L222.022 42.775L217.345 49.5559C215.928 51.611 215.719 53.7315 216.774 56.2366C217.911 58.9367 220.587 62.1969 225.306 65.941C234.732 73.4191 251.033 81.8354 274.115 90.74L280.353 93.1466L275.487 97.0452L273.848 98.3579Z" stroke="white" stroke-width="8"/>
</g>
<path d="M23.85 230.122V245.521H39.485V248.943H23.85V264.578H41.255V268H19.72V226.7H41.255V230.122H23.85ZM66.3259 268.413C63.6119 268.413 61.2125 267.941 59.1279 266.997C57.0825 266.053 55.4699 264.735 54.2899 263.044C53.1099 261.353 52.4805 259.465 52.4019 257.38H56.7679C56.9645 259.386 57.8495 261.156 59.4229 262.69C60.9962 264.185 63.2972 264.932 66.3259 264.932C69.1185 264.932 71.3212 264.224 72.9339 262.808C74.5859 261.353 75.4119 259.524 75.4119 257.321C75.4119 255.551 74.9595 254.135 74.0549 253.073C73.1502 251.972 72.0292 251.165 70.6919 250.654C69.3545 250.103 67.5059 249.513 65.1459 248.884C62.3925 248.137 60.2095 247.409 58.5969 246.701C56.9842 245.993 55.6075 244.892 54.4669 243.397C53.3262 241.902 52.7559 239.877 52.7559 237.32C52.7559 235.196 53.3065 233.308 54.4079 231.656C55.5092 229.965 57.0629 228.647 59.0689 227.703C61.0749 226.759 63.3759 226.287 65.9719 226.287C69.7872 226.287 72.8552 227.231 75.1759 229.119C77.5359 230.968 78.8929 233.367 79.2469 236.317H74.7629C74.4875 234.626 73.5632 233.131 71.9899 231.833C70.4165 230.496 68.2925 229.827 65.6179 229.827C63.1399 229.827 61.0749 230.496 59.4229 231.833C57.7709 233.131 56.9449 234.921 56.9449 237.202C56.9449 238.933 57.3972 240.329 58.3019 241.391C59.2065 242.453 60.3275 243.259 61.6649 243.81C63.0415 244.361 64.8902 244.951 67.2109 245.58C69.8855 246.327 72.0489 247.075 73.7009 247.822C75.3529 248.53 76.7492 249.631 77.8899 251.126C79.0305 252.621 79.6009 254.627 79.6009 257.144C79.6009 259.071 79.0895 260.9 78.0669 262.631C77.0442 264.362 75.5299 265.758 73.5239 266.82C71.5179 267.882 69.1185 268.413 66.3259 268.413ZM90.1185 247.35C90.1185 243.299 91.0035 239.68 92.7735 236.494C94.5435 233.269 96.9625 230.771 100.031 229.001C103.099 227.192 106.521 226.287 110.297 226.287C114.899 226.287 118.832 227.388 122.097 229.591C125.401 231.754 127.8 234.822 129.295 238.795H124.457C123.277 236.002 121.467 233.819 119.029 232.246C116.629 230.673 113.719 229.886 110.297 229.886C107.268 229.886 104.534 230.594 102.096 232.01C99.6962 233.426 97.8082 235.471 96.4315 238.146C95.0549 240.781 94.3665 243.849 94.3665 247.35C94.3665 250.851 95.0549 253.919 96.4315 256.554C97.8082 259.189 99.6962 261.215 102.096 262.631C104.534 264.047 107.268 264.755 110.297 264.755C113.719 264.755 116.629 263.988 119.029 262.454C121.467 260.881 123.277 258.717 124.457 255.964H129.295C127.8 259.897 125.401 262.946 122.097 265.109C118.793 267.272 114.859 268.354 110.297 268.354C106.521 268.354 103.099 267.469 100.031 265.699C96.9625 263.89 94.5435 261.392 92.7735 258.206C91.0035 255.02 90.1185 251.401 90.1185 247.35ZM165.844 258.206H147.082L143.483 268H139.117L154.162 227.29H158.823L173.809 268H169.443L165.844 258.206ZM164.605 254.784L156.463 232.482L148.321 254.784H164.605ZM188.992 264.637H203.801V268H184.862V226.759H188.992V264.637ZM238.015 258.206H219.253L215.654 268H211.288L226.333 227.29H230.994L245.98 268H241.614L238.015 258.206ZM236.776 254.784L228.634 232.482L220.492 254.784H236.776ZM281.165 226.759V230.181H269.719V268H265.589V230.181H254.084V226.759H281.165ZM310.637 268.413C306.822 268.413 303.36 267.528 300.253 265.758C297.146 263.949 294.687 261.451 292.878 258.265C291.108 255.04 290.223 251.401 290.223 247.35C290.223 243.299 291.108 239.68 292.878 236.494C294.687 233.269 297.146 230.771 300.253 229.001C303.36 227.192 306.822 226.287 310.637 226.287C314.492 226.287 317.973 227.192 321.08 229.001C324.187 230.771 326.626 233.269 328.396 236.494C330.166 239.68 331.051 243.299 331.051 247.35C331.051 251.401 330.166 255.04 328.396 258.265C326.626 261.451 324.187 263.949 321.08 265.758C317.973 267.528 314.492 268.413 310.637 268.413ZM310.637 264.814C313.705 264.814 316.458 264.106 318.897 262.69C321.336 261.274 323.263 259.248 324.679 256.613C326.095 253.938 326.803 250.851 326.803 247.35C326.803 243.849 326.095 240.781 324.679 238.146C323.263 235.511 321.336 233.485 318.897 232.069C316.458 230.653 313.705 229.945 310.637 229.945C307.569 229.945 304.816 230.653 302.377 232.069C299.938 233.485 298.011 235.511 296.595 238.146C295.179 240.781 294.471 243.849 294.471 247.35C294.471 250.851 295.179 253.938 296.595 256.613C298.011 259.248 299.938 261.274 302.377 262.69C304.816 264.106 307.569 264.814 310.637 264.814ZM364.981 268L354.774 250.772H347.163V268H343.033V226.759H355.423C360.025 226.759 363.506 227.86 365.866 230.063C368.265 232.266 369.465 235.157 369.465 238.736C369.465 241.725 368.6 244.282 366.869 246.406C365.178 248.491 362.66 249.848 359.317 250.477L369.937 268H364.981ZM347.163 247.409H355.482C358.707 247.409 361.126 246.622 362.739 245.049C364.391 243.476 365.217 241.371 365.217 238.736C365.217 236.022 364.43 233.937 362.857 232.482C361.284 230.987 358.806 230.24 355.423 230.24H347.163V247.409Z" fill="white"/>
<path d="M23.85 230.122V229.122H22.85V230.122H23.85ZM23.85 245.521H22.85V246.521H23.85V245.521ZM39.485 245.521H40.485V244.521H39.485V245.521ZM39.485 248.943V249.943H40.485V248.943H39.485ZM23.85 248.943V247.943H22.85V248.943H23.85ZM23.85 264.578H22.85V265.578H23.85V264.578ZM41.255 264.578H42.255V263.578H41.255V264.578ZM41.255 268V269H42.255V268H41.255ZM19.72 268H18.72V269H19.72V268ZM19.72 226.7V225.7H18.72V226.7H19.72ZM41.255 226.7H42.255V225.7H41.255V226.7ZM41.255 230.122V231.122H42.255V230.122H41.255ZM22.85 230.122V245.521H24.85V230.122H22.85ZM23.85 246.521H39.485V244.521H23.85V246.521ZM38.485 245.521V248.943H40.485V245.521H38.485ZM39.485 247.943H23.85V249.943H39.485V247.943ZM22.85 248.943V264.578H24.85V248.943H22.85ZM23.85 265.578H41.255V263.578H23.85V265.578ZM40.255 264.578V268H42.255V264.578H40.255ZM41.255 267H19.72V269H41.255V267ZM20.72 268V226.7H18.72V268H20.72ZM19.72 227.7H41.255V225.7H19.72V227.7ZM40.255 226.7V230.122H42.255V226.7H40.255ZM41.255 229.122H23.85V231.122H41.255V229.122ZM59.1278 266.997L58.7088 267.905L58.7153 267.908L59.1278 266.997ZM54.2899 263.044L55.11 262.472L54.2899 263.044ZM52.4019 257.38V256.38H51.3634L51.4026 257.418L52.4019 257.38ZM56.7679 257.38L57.7631 257.282L57.6746 256.38H56.7679V257.38ZM59.4229 262.69L58.7247 263.406L58.7341 263.415L59.4229 262.69ZM72.9339 262.808L73.5937 263.559L73.5949 263.558L72.9339 262.808ZM74.0549 253.073L73.2821 253.708L73.2878 253.715L73.2936 253.721L74.0549 253.073ZM70.6919 250.654L70.3111 251.579L70.3228 251.584L70.3347 251.588L70.6919 250.654ZM65.1459 248.884L64.8839 249.849L64.8882 249.85L65.1459 248.884ZM58.5969 246.701L58.9988 245.785L58.5969 246.701ZM54.4669 243.397L55.2618 242.79L54.4669 243.397ZM54.4079 231.656L55.24 232.211L55.2458 232.202L54.4079 231.656ZM59.0689 227.703L59.4946 228.608L59.0689 227.703ZM75.1759 229.119L74.5448 229.895L74.5519 229.901L74.5592 229.906L75.1759 229.119ZM79.2469 236.317V237.317H80.374L80.2397 236.198L79.2469 236.317ZM74.7629 236.317L73.7758 236.478L73.9125 237.317H74.7629V236.317ZM71.9899 231.833L71.3422 232.595L71.3478 232.6L71.3535 232.604L71.9899 231.833ZM59.4229 231.833L60.0407 232.619L60.0464 232.615L60.052 232.61L59.4229 231.833ZM58.3018 241.391L59.0631 240.743L58.3018 241.391ZM61.6649 243.81L61.2841 244.735L61.2935 244.738L61.6649 243.81ZM67.2108 245.58L67.48 244.617L67.4726 244.615L67.2108 245.58ZM73.7009 247.822L73.2887 248.733L73.2978 248.737L73.3069 248.741L73.7009 247.822ZM77.8899 251.126L78.6848 250.519L77.8899 251.126ZM78.0669 262.631L77.2059 262.122L78.0669 262.631ZM73.5239 266.82L73.9917 267.704L73.5239 266.82ZM66.3259 267.413C63.728 267.413 61.4736 266.961 59.5404 266.086L58.7153 267.908C60.9515 268.921 63.4957 269.413 66.3259 269.413V267.413ZM59.5469 266.089C57.6474 265.212 56.1792 264.004 55.11 262.472L53.4697 263.616C54.7605 265.466 56.5177 266.894 58.7088 267.905L59.5469 266.089ZM55.11 262.472C54.0411 260.94 53.4727 259.238 53.4011 257.342L51.4026 257.418C51.4884 259.692 52.1786 261.766 53.4697 263.616L55.11 262.472ZM52.4019 258.38H56.7679V256.38H52.4019V258.38ZM55.7726 257.478C55.9944 259.74 56.9989 261.723 58.7248 263.406L60.121 261.974C58.7001 260.589 57.9346 259.032 57.7631 257.282L55.7726 257.478ZM58.7341 263.415C60.5561 265.146 63.1431 265.932 66.3259 265.932V263.932C63.4513 263.932 61.4362 263.223 60.1116 261.965L58.7341 263.415ZM66.3259 265.932C69.2866 265.932 71.7492 265.179 73.5937 263.559L72.2741 262.057C70.8931 263.269 68.9505 263.932 66.3259 263.932V265.932ZM73.5949 263.558C75.4625 261.913 76.4118 259.811 76.4118 257.321H74.4118C74.4118 259.237 73.7092 260.792 72.2728 262.058L73.5949 263.558ZM76.4118 257.321C76.4118 255.379 75.9126 253.712 74.8161 252.425L73.2936 253.721C74.0064 254.558 74.4118 255.723 74.4118 257.321H76.4118ZM74.8276 252.438C73.8122 251.202 72.5477 250.293 71.049 249.72L70.3347 251.588C71.5107 252.038 72.4882 252.741 73.2821 253.708L74.8276 252.438ZM71.0726 249.729C69.6772 249.155 67.7811 248.552 65.4035 247.918L64.8882 249.85C67.2306 250.475 69.0318 251.052 70.3111 251.579L71.0726 249.729ZM65.4078 247.919C62.6769 247.178 60.5471 246.465 58.9988 245.785L58.1949 247.617C59.8719 248.353 62.1081 249.096 64.8839 249.849L65.4078 247.919ZM58.9988 245.785C57.5517 245.15 56.3069 244.16 55.2618 242.79L53.6719 244.004C54.9081 245.624 56.4167 246.836 58.1949 247.617L58.9988 245.785ZM55.2618 242.79C54.2947 241.523 53.7559 239.735 53.7559 237.32H51.7559C51.7559 240.018 52.3576 242.282 53.6719 244.004L55.2618 242.79ZM53.7559 237.32C53.7559 235.379 54.2558 233.687 55.2399 232.211L53.5758 231.101C52.3572 232.929 51.7559 235.013 51.7559 237.32H53.7559ZM55.2458 232.202C56.236 230.681 57.6396 229.481 59.4946 228.608L58.6431 226.798C56.4861 227.813 54.7824 229.248 53.5699 231.11L55.2458 232.202ZM59.4946 228.608C61.3466 227.736 63.4981 227.287 65.9719 227.287V225.287C63.2536 225.287 60.8032 225.782 58.6431 226.798L59.4946 228.608ZM65.9719 227.287C69.6218 227.287 72.4467 228.188 74.5448 229.895L75.8069 228.343C73.2636 226.274 69.9526 225.287 65.9719 225.287V227.287ZM74.5592 229.906C76.7121 231.593 77.932 233.753 78.254 236.436L80.2397 236.198C79.8538 232.981 78.3596 230.343 75.7925 228.332L74.5592 229.906ZM79.2469 235.317H74.7629V237.317H79.2469V235.317ZM75.7499 236.156C75.4284 234.182 74.3492 232.483 72.6262 231.062L71.3535 232.604C72.7772 233.779 73.5466 235.07 73.7758 236.478L75.7499 236.156ZM72.6375 231.071C70.8355 229.539 68.4584 228.827 65.6179 228.827V230.827C68.1266 230.827 69.9975 231.452 71.3422 232.595L72.6375 231.071ZM65.6179 228.827C62.9506 228.827 60.6523 229.551 58.7937 231.056L60.052 232.61C61.4974 231.44 63.3291 230.827 65.6179 230.827V228.827ZM58.805 231.047C56.8889 232.552 55.9449 234.644 55.9449 237.202H57.9449C57.9449 235.197 58.6528 233.71 60.0407 232.619L58.805 231.047ZM55.9449 237.202C55.9449 239.111 56.4474 240.756 57.5406 242.039L59.0631 240.743C58.347 239.902 57.9449 238.754 57.9449 237.202H55.9449ZM57.5406 242.039C58.5522 243.227 59.8054 244.126 61.2841 244.735L62.0456 242.885C60.8497 242.393 59.8608 241.679 59.0631 240.743L57.5406 242.039ZM61.2935 244.738C62.721 245.309 64.611 245.911 66.9491 246.545L67.4726 244.615C65.1693 243.99 63.3621 243.412 62.0362 242.882L61.2935 244.738ZM66.9417 246.543C69.5903 247.283 71.7005 248.015 73.2887 248.733L74.113 246.911C72.3972 246.135 70.1808 245.372 67.48 244.617L66.9417 246.543ZM73.3069 248.741C74.7931 249.378 76.0538 250.368 77.0949 251.733L78.6848 250.519C77.4446 248.894 75.9126 247.682 74.0948 246.903L73.3069 248.741ZM77.0949 251.733C78.0638 253.002 78.6009 254.772 78.6009 257.144H80.6009C80.6009 254.481 79.9972 252.239 78.6848 250.519L77.0949 251.733ZM78.6009 257.144C78.6009 258.884 78.1416 260.539 77.2059 262.122L78.9278 263.14C80.0374 261.262 80.6009 259.258 80.6009 257.144H78.6009ZM77.2059 262.122C76.2888 263.674 74.9204 264.949 73.056 265.936L73.9917 267.704C76.1393 266.567 77.7995 265.049 78.9278 263.14L77.2059 262.122ZM73.056 265.936C71.2236 266.906 68.9925 267.413 66.3259 267.413V269.413C69.2446 269.413 71.8121 268.858 73.9917 267.704L73.056 265.936ZM92.7735 236.494L93.6477 236.98L93.6502 236.975L92.7735 236.494ZM100.031 229.001L100.53 229.867L100.539 229.862L100.031 229.001ZM122.097 229.591L121.537 230.42L121.549 230.428L122.097 229.591ZM129.295 238.795V239.795H130.739L130.23 238.443L129.295 238.795ZM124.457 238.795L123.535 239.184L123.793 239.795H124.457V238.795ZM119.029 232.246L118.48 233.082L118.486 233.086L119.029 232.246ZM102.096 232.01L101.593 231.145L101.587 231.149L102.096 232.01ZM96.4315 238.146L97.3179 238.609L97.3207 238.604L96.4315 238.146ZM96.4315 256.554L95.5452 257.017L96.4315 256.554ZM102.096 262.631L101.587 263.492L101.593 263.496L102.096 262.631ZM119.029 262.454L119.567 263.297L119.571 263.294L119.029 262.454ZM124.457 255.964V254.964H123.797L123.537 255.57L124.457 255.964ZM129.295 255.964L130.229 256.319L130.744 254.964H129.295V255.964ZM122.097 265.109L121.549 264.272L122.097 265.109ZM100.031 265.699L99.5225 266.56L99.5308 266.565L100.031 265.699ZM92.7735 258.206L91.8994 258.692L92.7735 258.206ZM91.1185 247.35C91.1185 243.449 91.9691 240.001 93.6477 236.98L91.8994 236.008C90.0379 239.359 89.1185 243.148 89.1185 247.35H91.1185ZM93.6502 236.975C95.3357 233.904 97.6271 231.542 100.53 229.867L99.5308 228.135C96.298 230 93.7513 232.634 91.8969 236.013L93.6502 236.975ZM100.539 229.862C103.443 228.149 106.688 227.287 110.297 227.287V225.287C106.353 225.287 102.754 226.234 99.5225 228.14L100.539 229.862ZM110.297 227.287C114.734 227.287 118.464 228.347 121.537 230.42L122.656 228.762C119.2 226.43 115.063 225.287 110.297 225.287V227.287ZM121.549 230.428C124.662 232.466 126.933 235.357 128.359 239.147L130.23 238.443C128.667 234.287 126.139 231.043 122.644 228.754L121.549 230.428ZM129.295 237.795H124.457V239.795H129.295V237.795ZM125.378 238.406C124.123 235.437 122.186 233.093 119.571 231.406L118.486 233.086C120.748 234.546 122.43 236.568 123.535 239.184L125.378 238.406ZM119.577 231.41C116.985 229.71 113.875 228.886 110.297 228.886V230.886C113.562 230.886 116.273 231.635 118.48 233.082L119.577 231.41ZM110.297 228.886C107.105 228.886 104.196 229.634 101.593 231.145L102.598 232.875C104.873 231.554 107.431 230.886 110.297 230.886V228.886ZM101.587 231.149C99.0125 232.668 96.9982 234.86 95.5424 237.688L97.3207 238.604C98.6181 236.083 100.38 234.184 102.604 232.871L101.587 231.149ZM95.5452 237.683C94.0817 240.485 93.3665 243.717 93.3665 247.35H95.3665C95.3665 243.982 96.0281 241.078 97.3179 238.609L95.5452 237.683ZM93.3665 247.35C93.3665 250.983 94.0817 254.215 95.5452 257.017L97.3179 256.091C96.0281 253.622 95.3665 250.718 95.3665 247.35H93.3665ZM95.5452 257.017C97.0022 259.806 99.0163 261.975 101.587 263.492L102.604 261.77C100.376 260.455 98.6142 258.572 97.3179 256.091L95.5452 257.017ZM101.593 263.496C104.196 265.007 107.105 265.755 110.297 265.755V263.755C107.431 263.755 104.873 263.087 102.598 261.766L101.593 263.496ZM110.297 265.755C113.871 265.755 116.977 264.952 119.567 263.297L118.49 261.611C116.281 263.024 113.566 263.755 110.297 263.755V265.755ZM119.571 263.294C122.182 261.609 124.12 259.288 125.376 256.358L123.537 255.57C122.433 258.147 120.752 260.152 118.486 261.614L119.571 263.294ZM124.457 256.964H129.295V254.964H124.457V256.964ZM128.36 255.609C126.935 259.359 124.664 262.232 121.549 264.272L122.644 265.946C126.137 263.659 128.665 260.436 130.229 256.319L128.36 255.609ZM121.549 264.272C118.432 266.313 114.696 267.354 110.297 267.354V269.354C115.023 269.354 119.153 268.231 122.644 265.946L121.549 264.272ZM110.297 267.354C106.684 267.354 103.436 266.509 100.53 264.833L99.5308 266.565C102.761 268.429 106.357 269.354 110.297 269.354V267.354ZM100.539 264.838C97.6275 263.121 95.3333 260.755 93.6477 257.72L91.8994 258.692C93.7537 262.029 96.2975 264.658 99.5225 266.56L100.539 264.838ZM93.6477 257.72C91.9691 254.699 91.1185 251.251 91.1185 247.35H89.1185C89.1185 251.552 90.0379 255.341 91.8994 258.692L93.6477 257.72ZM165.844 258.206L166.783 257.861L166.542 257.206H165.844V258.206ZM147.082 258.206V257.206H146.384L146.143 257.861L147.082 258.206ZM143.483 268V269H144.181L144.422 268.345L143.483 268ZM139.117 268L138.179 267.653L137.681 269H139.117V268ZM154.162 227.29V226.29H153.466L153.224 226.943L154.162 227.29ZM158.823 227.29L159.762 226.945L159.521 226.29H158.823V227.29ZM173.809 268V269H175.243L174.748 267.655L173.809 268ZM169.443 268L168.504 268.345L168.745 269H169.443V268ZM164.605 254.784V255.784H166.035L165.544 254.441L164.605 254.784ZM156.463 232.482L157.402 232.139L156.463 229.566L155.524 232.139L156.463 232.482ZM148.321 254.784L147.382 254.441L146.891 255.784H148.321V254.784ZM165.844 257.206H147.082V259.206H165.844V257.206ZM146.143 257.861L142.544 267.655L144.422 268.345L148.021 258.551L146.143 257.861ZM143.483 267H139.117V269H143.483V267ZM140.055 268.347L155.1 227.637L153.224 226.943L138.179 267.653L140.055 268.347ZM154.162 228.29H158.823V226.29H154.162V228.29ZM157.885 227.635L172.871 268.345L174.748 267.655L159.762 226.945L157.885 227.635ZM173.809 267H169.443V269H173.809V267ZM170.382 267.655L166.783 257.861L164.905 258.551L168.504 268.345L170.382 267.655ZM165.544 254.441L157.402 232.139L155.524 232.825L163.666 255.127L165.544 254.441ZM155.524 232.139L147.382 254.441L149.26 255.127L157.402 232.825L155.524 232.139ZM148.321 255.784H164.605V253.784H148.321V255.784ZM188.992 264.637H187.992V265.637H188.992V264.637ZM203.801 264.637H204.801V263.637H203.801V264.637ZM203.801 268V269H204.801V268H203.801ZM184.862 268H183.862V269H184.862V268ZM184.862 226.759V225.759H183.862V226.759H184.862ZM188.992 226.759H189.992V225.759H188.992V226.759ZM188.992 265.637H203.801V263.637H188.992V265.637ZM202.801 264.637V268H204.801V264.637H202.801ZM203.801 267H184.862V269H203.801V267ZM185.862 268V226.759H183.862V268H185.862ZM184.862 227.759H188.992V225.759H184.862V227.759ZM187.992 226.759V264.637H189.992V226.759H187.992ZM238.015 258.206L238.954 257.861L238.713 257.206H238.015V258.206ZM219.253 258.206V257.206H218.555L218.315 257.861L219.253 258.206ZM215.654 268V269H216.352L216.593 268.345L215.654 268ZM211.288 268L210.35 267.653L209.853 269H211.288V268ZM226.333 227.29V226.29H225.637L225.395 226.943L226.333 227.29ZM230.994 227.29L231.933 226.945L231.692 226.29H230.994V227.29ZM245.98 268V269H247.414L246.919 267.655L245.98 268ZM241.614 268L240.676 268.345L240.916 269H241.614V268ZM236.776 254.784V255.784H238.206L237.716 254.441L236.776 254.784ZM228.634 232.482L229.574 232.139L228.634 229.566L227.695 232.139L228.634 232.482ZM220.492 254.784L219.553 254.441L219.063 255.784H220.492V254.784ZM238.015 257.206H219.253V259.206H238.015V257.206ZM218.315 257.861L214.716 267.655L216.593 268.345L220.192 258.551L218.315 257.861ZM215.654 267H211.288V269H215.654V267ZM212.226 268.347L227.271 227.637L225.395 226.943L210.35 267.653L212.226 268.347ZM226.333 228.29H230.994V226.29H226.333V228.29ZM230.056 227.635L245.042 268.345L246.919 267.655L231.933 226.945L230.056 227.635ZM245.98 267H241.614V269H245.98V267ZM242.553 267.655L238.954 257.861L237.077 258.551L240.676 268.345L242.553 267.655ZM237.716 254.441L229.574 232.139L227.695 232.825L235.837 255.127L237.716 254.441ZM227.695 232.139L219.553 254.441L221.432 255.127L229.574 232.825L227.695 232.139ZM220.492 255.784H236.776V253.784H220.492V255.784ZM281.165 226.759H282.165V225.759H281.165V226.759ZM281.165 230.181V231.181H282.165V230.181H281.165ZM269.719 230.181V229.181H268.719V230.181H269.719ZM269.719 268V269H270.719V268H269.719ZM265.589 268H264.589V269H265.589V268ZM265.589 230.181H266.589V229.181H265.589V230.181ZM254.084 230.181H253.084V231.181H254.084V230.181ZM254.084 226.759V225.759H253.084V226.759H254.084ZM280.165 226.759V230.181H282.165V226.759H280.165ZM281.165 229.181H269.719V231.181H281.165V229.181ZM268.719 230.181V268H270.719V230.181H268.719ZM269.719 267H265.589V269H269.719V267ZM266.589 268V230.181H264.589V268H266.589ZM265.589 229.181H254.084V231.181H265.589V229.181ZM255.084 230.181V226.759H253.084V230.181H255.084ZM254.084 227.759H281.165V225.759H254.084V227.759ZM300.253 265.758L299.75 266.622L299.758 266.627L300.253 265.758ZM292.878 258.265L292.001 258.746L292.005 258.752L292.008 258.759L292.878 258.265ZM292.878 236.494L292.006 236.005L292.004 236.008L292.878 236.494ZM300.253 229.001L300.748 229.87L300.756 229.865L300.253 229.001ZM321.08 229.001L320.577 229.865L320.585 229.87L321.08 229.001ZM328.396 236.494L327.519 236.975L327.522 236.98L328.396 236.494ZM328.396 258.265L329.27 258.751L329.273 258.746L328.396 258.265ZM321.08 265.758L321.575 266.627L321.583 266.622L321.08 265.758ZM318.897 262.69L319.399 263.555L318.897 262.69ZM324.679 256.613L325.56 257.086L325.563 257.081L324.679 256.613ZM324.679 238.146L325.56 237.673L324.679 238.146ZM318.897 232.069L319.399 231.204L318.897 232.069ZM302.377 232.069L302.879 232.934L302.377 232.069ZM296.595 238.146L295.714 237.673L296.595 238.146ZM296.595 256.613L295.711 257.081L295.714 257.086L296.595 256.613ZM302.377 262.69L302.879 261.825L302.377 262.69ZM310.637 267.413C306.983 267.413 303.694 266.567 300.748 264.889L299.758 266.627C303.026 268.489 306.66 269.413 310.637 269.413V267.413ZM300.756 264.894C297.805 263.175 295.471 260.807 293.748 257.771L292.008 258.759C293.903 262.095 296.487 264.722 299.75 266.622L300.756 264.894ZM293.755 257.784C292.074 254.721 291.223 251.251 291.223 247.35H289.223C289.223 251.552 290.142 255.359 292.001 258.746L293.755 257.784ZM291.223 247.35C291.223 243.449 292.074 240.001 293.752 236.98L292.004 236.008C290.142 239.359 289.223 243.148 289.223 247.35H291.223ZM293.75 236.983C295.474 233.911 297.804 231.547 300.748 229.87L299.758 228.132C296.487 229.995 293.901 232.627 292.006 236.005L293.75 236.983ZM300.756 229.865C303.701 228.15 306.987 227.287 310.637 227.287V225.287C306.656 225.287 303.019 226.233 299.75 228.137L300.756 229.865ZM310.637 227.287C314.328 227.287 317.633 228.151 320.577 229.865L321.583 228.137C318.312 226.232 314.655 225.287 310.637 225.287V227.287ZM320.585 229.87C323.527 231.546 325.836 233.907 327.519 236.975L329.273 236.013C327.416 232.63 324.848 229.996 321.575 228.132L320.585 229.87ZM327.522 236.98C329.2 240.001 330.051 243.449 330.051 247.35H332.051C332.051 243.148 331.132 239.359 329.27 236.008L327.522 236.98ZM330.051 247.35C330.051 251.251 329.2 254.721 327.519 257.784L329.273 258.746C331.132 255.359 332.051 251.552 332.051 247.35H330.051ZM327.522 257.779C325.838 260.81 323.526 263.176 320.577 264.894L321.583 266.622C324.848 264.721 327.414 262.092 329.27 258.751L327.522 257.779ZM320.585 264.889C317.64 266.567 314.332 267.413 310.637 267.413V269.413C314.651 269.413 318.305 268.489 321.575 266.627L320.585 264.889ZM310.637 265.814C313.865 265.814 316.795 265.067 319.399 263.555L318.395 261.825C316.122 263.145 313.545 263.814 310.637 263.814V265.814ZM319.399 263.555C322.008 262.04 324.062 259.874 325.56 257.086L323.798 256.14C322.464 258.622 320.664 260.508 318.395 261.825L319.399 263.555ZM325.563 257.081C327.066 254.241 327.803 250.988 327.803 247.35H325.803C325.803 250.713 325.124 253.636 323.795 256.145L325.563 257.081ZM327.803 247.35C327.803 243.712 327.066 240.476 325.56 237.673L323.798 238.619C325.124 241.086 325.803 243.986 325.803 247.35H327.803ZM325.56 237.673C324.062 234.885 322.008 232.719 319.399 231.204L318.395 232.934C320.664 234.251 322.464 236.137 323.798 238.619L325.56 237.673ZM319.399 231.204C316.795 229.692 313.865 228.945 310.637 228.945V230.945C313.545 230.945 316.122 231.614 318.395 232.934L319.399 231.204ZM310.637 228.945C307.409 228.945 304.479 229.692 301.875 231.204L302.879 232.934C305.152 231.614 307.729 230.945 310.637 230.945V228.945ZM301.875 231.204C299.266 232.719 297.212 234.885 295.714 237.673L297.476 238.619C298.81 236.137 300.61 234.251 302.879 232.934L301.875 231.204ZM295.714 237.673C294.208 240.476 293.471 243.712 293.471 247.35H295.471C295.471 243.986 296.15 241.086 297.476 238.619L295.714 237.673ZM293.471 247.35C293.471 250.988 294.208 254.241 295.711 257.081L297.479 256.145C296.15 253.636 295.471 250.713 295.471 247.35H293.471ZM295.714 257.086C297.212 259.874 299.266 262.04 301.875 263.555L302.879 261.825C300.61 260.508 298.81 258.622 297.476 256.14L295.714 257.086ZM301.875 263.555C304.479 265.067 307.409 265.814 310.637 265.814V263.814C307.729 263.814 305.152 263.145 302.879 261.825L301.875 263.555ZM364.981 268L364.121 268.51L364.411 269H364.981V268ZM354.774 250.772L355.634 250.262L355.344 249.772H354.774V250.772ZM347.163 250.772V249.772H346.163V250.772H347.163ZM347.163 268V269H348.163V268H347.163ZM343.033 268H342.033V269H343.033V268ZM343.033 226.759V225.759H342.033V226.759H343.033ZM365.866 230.063L365.184 230.794L365.19 230.8L365.866 230.063ZM366.869 246.406L366.094 245.774L366.093 245.776L366.869 246.406ZM359.317 250.477L359.132 249.494L357.714 249.761L358.462 250.995L359.317 250.477ZM369.937 268V269H371.712L370.792 267.482L369.937 268ZM347.163 247.409H346.163V248.409H347.163V247.409ZM362.739 245.049L362.049 244.325L362.041 244.333L362.739 245.049ZM362.857 232.482L362.168 233.207L362.178 233.216L362.857 232.482ZM347.163 230.24V229.24H346.163V230.24H347.163ZM365.841 267.49L355.634 250.262L353.914 251.282L364.121 268.51L365.841 267.49ZM354.774 249.772H347.163V251.772H354.774V249.772ZM346.163 250.772V268H348.163V250.772H346.163ZM347.163 267H343.033V269H347.163V267ZM344.033 268V226.759H342.033V268H344.033ZM343.033 227.759H355.423V225.759H343.033V227.759ZM355.423 227.759C359.879 227.759 363.075 228.826 365.184 230.794L366.548 229.332C363.937 226.895 360.171 225.759 355.423 225.759V227.759ZM365.19 230.8C367.361 232.793 368.465 235.406 368.465 238.736H370.465C370.465 234.907 369.17 231.738 366.542 229.326L365.19 230.8ZM368.465 238.736C368.465 241.518 367.666 243.845 366.094 245.774L367.644 247.038C369.534 244.719 370.465 241.933 370.465 238.736H368.465ZM366.093 245.776C364.587 247.632 362.307 248.897 359.132 249.494L359.502 251.46C363.014 250.799 365.769 249.349 367.646 247.036L366.093 245.776ZM358.462 250.995L369.082 268.518L370.792 267.482L360.172 249.959L358.462 250.995ZM369.937 267H364.981V269H369.937V267ZM347.163 248.409H355.482V246.409H347.163V248.409ZM355.482 248.409C358.855 248.409 361.57 247.586 363.437 245.765L362.041 244.333C360.683 245.658 358.559 246.409 355.482 246.409V248.409ZM363.429 245.773C365.31 243.981 366.217 241.599 366.217 238.736H364.217C364.217 241.144 363.472 242.97 362.049 244.325L363.429 245.773ZM366.217 238.736C366.217 235.822 365.366 233.44 363.536 231.748L362.178 233.216C363.495 234.434 364.217 236.222 364.217 238.736H366.217ZM363.546 231.757C361.706 230.009 358.924 229.24 355.423 229.24V231.24C358.688 231.24 360.861 231.965 362.168 233.207L363.546 231.757ZM355.423 229.24H347.163V231.24H355.423V229.24ZM346.163 230.24V247.409H348.163V230.24H346.163Z" fill="white"/>
<defs>
<filter id="filter0_d" x="197.466" y="38.0748" width="94.6469" height="74.2414" filterUnits="userSpaceOnUse" color-interpolation-filters="sRGB">
<feFlood flood-opacity="0" result="BackgroundImageFix"/>
<feColorMatrix in="SourceAlpha" type="matrix" values="0 0 0 0 0 0 0 0 0 0 0 0 0 0 0 0 0 0 127 0"/>
<feOffset dy="4"/>
<feGaussianBlur stdDeviation="2"/>
<feColorMatrix type="matrix" values="0 0 0 0 0 0 0 0 0 0 0 0 0 0 0 0 0 0 0.25 0"/>
<feBlend mode="normal" in2="BackgroundImageFix" result="effect1_dropShadow"/>
<feBlend mode="normal" in="SourceGraphic" in2="effect1_dropShadow" result="shape"/>
</filter>
</defs>
</svg>
